<svg width="51" height="51" viewBox="0 0 51 51" fill="none" xmlns="http://www.w3.org/2000/svg">
<path d="M20.2525 8.43501L36.19 24.3725C36.3382 24.5205 36.4557 24.6963 36.5359 24.8898C36.6161 25.0833 36.6574 25.2906 36.6574 25.5001C36.6574 25.7095 36.6161 25.9169 36.5359 26.1104C36.4557 26.3039 36.3382 26.4797 36.19 26.6277L20.2525 42.5652C19.9534 42.8642 19.5478 43.0322 19.1249 43.0322C18.702 43.0322 18.2964 42.8642 17.9973 42.5652C17.6983 42.2661 17.5303 41.8605 17.5303 41.4376C17.5303 41.0147 17.6983 40.6091 17.9973 40.31L32.8092 25.5001L17.9973 10.6902C17.8493 10.5421 17.7318 10.3663 17.6517 10.1728C17.5715 9.97936 17.5303 9.772 17.5303 9.56259C17.5303 9.35318 17.5715 9.14582 17.6517 8.95235C17.7318 8.75888 17.8493 8.58309 17.9973 8.43501C18.1454 8.28694 18.3212 8.16948 18.5147 8.08934C18.7081 8.0092 18.9155 7.96795 19.1249 7.96795C19.3343 7.96795 19.5417 8.0092 19.7352 8.08934C19.9286 8.16948 20.1044 8.28694 20.2525 8.43501Z" fill="white"/>
</svg>
