<svg width="40" height="40" viewBox="0 0 40 40" fill="none" xmlns="http://www.w3.org/2000/svg">
<path d="M34 0C37.3137 0 40 2.68629 40 6V34C40 37.3137 37.3137 40 34 40H6C2.68629 40 1.28855e-07 37.3137 0 34V6C0 2.68629 2.68629 1.28851e-07 6 0H34ZM16.7285 22.8389L7.29199 33.6758H9.4248L17.6748 24.2002L24.2656 33.6758H31.4639L21.6768 19.6045H21.6777L30.6758 9.27148H28.543L20.7305 18.2441L14.4902 9.27148H7.29199L16.7285 22.8389ZM19.6074 19.5332L20.5635 20.8838L28.5439 32.1621H25.2686L18.7568 22.959L17.8008 21.6074L10.1924 10.8564H13.4678L19.6074 19.5332Z" fill="white"/>
</svg>
